<svg xmlns="http://www.w3.org/2000/svg" width="205.271" height="29.108" viewBox="0 0 205.271 29.108"><defs><style>.a{fill:#fff;}.b{fill:#ef9035;}.c{fill:none;}</style></defs><path d="M-170.4,403.912a14.665,14.665,0,0,0-4.2-10.207,14.389,14.389,0,0,0-10.08-4.273v4.118a10.39,10.39,0,0,1,7.175,3.06,10.368,10.368,0,0,1,2.986,7.3,10.369,10.369,0,0,1-2.986,7.3,10.389,10.389,0,0,1-7.175,3.059v4.119a14.226,14.226,0,0,0,10.08-4.273A14.667,14.667,0,0,0-170.4,403.912Z" transform="translate(227.004 -389.428)"/><path class="a" d="M-112.729,413.958h13.112v4.075h-17.228v-28.2h17.188v4.075h-13.072v7.948H-99.94v4.115h-12.789Z" transform="translate(227.004 -389.428)"/><path d="M-62.5,418.536V393.962h-8.553v-4.17h21.141v4.17h-8.514v24.574Z" transform="translate(227.004 -389.428)"/><path d="M-41.986,389.833l7.706,12.552,7.706-12.552h4.841l-10.49,16.927v11.653h-4.115V406.76l-10.449-16.927Z" transform="translate(227.004 -389.428)"/><path class="b" d="M-205.886,411.013a9.625,9.625,0,0,1-7.32,3.187,9.6,9.6,0,0,1-6.939-3.026,10.325,10.325,0,0,1-2.9-7.181,10.377,10.377,0,0,1,2.9-7.262,9.606,9.606,0,0,1,6.939-3.026,9.312,9.312,0,0,1,7.317,3.188h4.642a13.043,13.043,0,0,0-11.959-7.222,13.62,13.62,0,0,0-9.764,4.2A14.8,14.8,0,0,0-227,403.993a14.754,14.754,0,0,0,4.034,10.046,13.463,13.463,0,0,0,9.764,4.2,13.333,13.333,0,0,0,11.987-7.222Z" transform="translate(227.004 -389.428)"/><path class="b" d="M-92.394,411.013a9.625,9.625,0,0,0,7.32,3.187,9.6,9.6,0,0,0,6.939-3.026,10.325,10.325,0,0,0,2.9-7.181,10.377,10.377,0,0,0-2.9-7.262,9.606,9.606,0,0,0-6.939-3.026,9.312,9.312,0,0,0-7.317,3.188h-4.642a13.043,13.043,0,0,1,11.959-7.222,13.62,13.62,0,0,1,9.764,4.2,14.8,14.8,0,0,1,4.034,10.126,14.754,14.754,0,0,1-4.034,10.046,13.463,13.463,0,0,1-9.764,4.2,13.333,13.333,0,0,1-11.987-7.222Z" transform="translate(227.004 -389.428)"/><path class="c" d="M-192.026,396.61a10.3,10.3,0,0,0-3.026,7.3,10.3,10.3,0,0,0,3.026,7.3,10.129,10.129,0,0,0,7.222,3.066c.043,0,.084-.006.127-.007V393.55c-.043,0-.084-.007-.127-.007A10.13,10.13,0,0,0-192.026,396.61Z" transform="translate(227.004 -389.428)"/><path d="M-112.729,413.958h13.112v4.075h-17.228v-28.2h17.188v4.075h-13.072v7.948H-99.94v4.115h-12.789Z" transform="translate(227.004 -389.428)"/><rect class="b" width="128.093" height="4.289" transform="translate(13.581 12.421)"/><path d="M-184.8,414.281a10.129,10.129,0,0,1-7.222-3.066,10.3,10.3,0,0,1-3.026-7.3,10.3,10.3,0,0,1,3.026-7.3,10.13,10.13,0,0,1,7.222-3.067c.043,0,.084.007.127.007v-4.118c-.043,0-.084,0-.127,0a14.3,14.3,0,0,0-10.167,4.277,14.665,14.665,0,0,0-4.2,10.207,14.667,14.667,0,0,0,4.2,10.208A14.138,14.138,0,0,0-184.8,418.4c.043,0,.084,0,.127,0v-4.119C-184.72,414.275-184.761,414.281-184.8,414.281Z" transform="translate(227.004 -389.428)"/><path d="M-166.952,418.033V389.751l3.147.041,13.758,19.89v-19.89h4.034v28.241h-3.227L-162.877,398.3v19.729Z" transform="translate(227.004 -389.428)"/><path d="M-141.817,418.033V389.751l3.146.041,13.758,19.89v-19.89h4.034v28.241h-3.227L-137.743,398.3v19.729Z" transform="translate(227.004 -389.428)"/></svg>